# Wavefront OBJ file automatically generated by Tiled2Unity

# Vertices (Count = 184)
v -160 -56 0
v -168 -56 0
v -168 -48 0
v -160 -48 0
v -176 -56 0
v -176 -48 0
v -184 -56 0
v -192 -56 0
v -192 -48 0
v -184 -48 0
v -160 -64 0
v -168 -64 0
v -176 -64 0
v -184 -64 0
v -192 -64 0
v -160 -72 0
v -168 -72 0
v -176 -72 0
v -184 -72 0
v -192 -72 0
v -168 -80 0
v -176 -80 0
v -184 -80 0
v -192 -80 0
v -176 -88 0
v -184 -88 0
v -8 -8 0
v -16 -8 0
v -16 0 0
v -8 0 0
v -72 -8 0
v -80 -8 0
v -80 0 0
v -72 0 0
v -8 -16 0
v -16 -16 0
v -72 -16 0
v -80 -16 0
v -8 -24 0
v -16 -24 0
v -72 -24 0
v -80 -24 0
v -8 -32 0
v -16 -32 0
v -72 -32 0
v -80 -32 0
v -8 -40 0
v -16 -40 0
v -72 -40 0
v -80 -40 0
v -144 -40 0
v -152 -40 0
v -152 -32 0
v -144 -32 0
v -160 -40 0
v -160 -32 0
v -168 -40 0
v -168 -32 0
v -176 -40 0
v -176 -32 0
v -184 -40 0
v -184 -32 0
v -192 -40 0
v -192 -32 0
v -200 -40 0
v -200 -32 0
v -208 -40 0
v -208 -32 0
v -8 -48 0
v -16 -48 0
v -72 -48 0
v -80 -48 0
v -88 -48 0
v -88 -40 0
v -96 -48 0
v -96 -40 0
v -104 -48 0
v -104 -40 0
v -112 -48 0
v -112 -40 0
v -120 -48 0
v -120 -40 0
v -128 -48 0
v -128 -40 0
v -136 -48 0
v -136 -40 0
v -144 -48 0
v -152 -48 0
v -200 -48 0
v -208 -48 0
v -8 -56 0
v -16 -56 0
v -200 -56 0
v -208 -56 0
v -8 -64 0
v -16 -64 0
v -24 -64 0
v -24 -56 0
v -32 -64 0
v -32 -56 0
v -40 -64 0
v -40 -56 0
v -200 -64 0
v -208 -64 0
v -8 -72 0
v -16 -72 0
v -200 -72 0
v -208 -72 0
v -8 -80 0
v -16 -80 0
v -200 -80 0
v -208 -80 0
v -8 -88 0
v -16 -88 0
v -112 -88 0
v -120 -88 0
v -120 -80 0
v -112 -80 0
v -128 -88 0
v -128 -80 0
v -136 -88 0
v -136 -80 0
v -144 -88 0
v -144 -80 0
v -152 -88 0
v -152 -80 0
v -200 -88 0
v -208 -88 0
v -8 -96 0
v -16 -96 0
v -112 -96 0
v -120 -96 0
v -144 -96 0
v -152 -96 0
v -160 -96 0
v -160 -88 0
v -168 -96 0
v -168 -88 0
v -176 -96 0
v -184 -96 0
v -192 -96 0
v -192 -88 0
v -200 -96 0
v -208 -96 0
v -8 -104 0
v -16 -104 0
v -72 -104 0
v -80 -104 0
v -80 -96 0
v -72 -96 0
v -88 -104 0
v -88 -96 0
v -96 -104 0
v -96 -96 0
v -104 -104 0
v -104 -96 0
v -112 -104 0
v -120 -104 0
v -8 -112 0
v -16 -112 0
v -72 -112 0
v -80 -112 0
v -8 -120 0
v -16 -120 0
v -72 -120 0
v -80 -120 0
v -8 -128 0
v -16 -128 0
v -24 -128 0
v -24 -120 0
v -32 -128 0
v -32 -120 0
v -40 -128 0
v -40 -120 0
v -72 -128 0
v -80 -128 0
v -8 -136 0
v -16 -136 0
v -72 -136 0
v -80 -136 0
v -8 -144 0
v -16 -144 0
v -72 -144 0
v -80 -144 0

# Texture Coorindates (Count = 108)
vt 0.06262207 0.6876221
vt 0.125 0.6876221
vt 0.125 0.75
vt 0.06262207 0.75
vt 0.3126221 0.7501221
vt 0.375 0.7501221
vt 0.375 0.8125
vt 0.3126221 0.8125
vt 0.0001220703 0.6251221
vt 0.0625 0.6251221
vt 0.0625 0.6875
vt 0.0001220703 0.6875
vt 0.1876221 0.7501221
vt 0.25 0.7501221
vt 0.25 0.8125
vt 0.1876221 0.8125
vt 0.2501221 0.6251221
vt 0.3125 0.6251221
vt 0.3125 0.6875
vt 0.2501221 0.6875
vt 0.3126221 0.6876221
vt 0.375 0.6876221
vt 0.375 0.75
vt 0.3126221 0.75
vt 0.06262207 0.6251221
vt 0.125 0.6251221
vt 0.125 0.6875
vt 0.06262207 0.6875
vt 0.1251221 0.6251221
vt 0.1875 0.6251221
vt 0.1875 0.6875
vt 0.1251221 0.6875
vt 0.0001220703 0.7501221
vt 0.0625 0.7501221
vt 0.0625 0.8125
vt 0.0001220703 0.8125
vt 0.1876221 0.6251221
vt 0.25 0.6251221
vt 0.25 0.6875
vt 0.1876221 0.6875
vt 0.2501221 0.7501221
vt 0.3125 0.7501221
vt 0.3125 0.8125
vt 0.2501221 0.8125
vt 0.0001220703 0.6876221
vt 0.0625 0.6876221
vt 0.0625 0.75
vt 0.0001220703 0.75
vt 0.3751221 0.6876221
vt 0.4375 0.6876221
vt 0.4375 0.75
vt 0.3751221 0.75
vt 0.0001220703 0.8751221
vt 0.0625 0.8751221
vt 0.0625 0.9375
vt 0.0001220703 0.9375
vt 0.1251221 0.8751221
vt 0.1875 0.8751221
vt 0.1875 0.9375
vt 0.1251221 0.9375
vt 0.0001220703 0.9376221
vt 0.0625 0.9376221
vt 0.0625 1
vt 0.0001220703 1
vt 0.2501221 0.8126221
vt 0.3125 0.8126221
vt 0.3125 0.875
vt 0.2501221 0.875
vt 0.1251221 0.9376221
vt 0.1875 0.9376221
vt 0.1875 1
vt 0.1251221 1
vt 0.2501221 0.9376221
vt 0.3125 0.9376221
vt 0.3125 1
vt 0.2501221 1
vt 0.06262207 0.9376221
vt 0.125 0.9376221
vt 0.125 1
vt 0.06262207 1
vt 0.1876221 0.9376221
vt 0.25 0.9376221
vt 0.25 1
vt 0.1876221 1
vt 0.06262207 0.8126221
vt 0.125 0.8126221
vt 0.125 0.875
vt 0.06262207 0.875
vt 0.2501221 0.8751221
vt 0.3125 0.8751221
vt 0.3125 0.9375
vt 0.2501221 0.9375
vt 0.1876221 0.8751221
vt 0.25 0.8751221
vt 0.25 0.9375
vt 0.1876221 0.9375
vt 0.0001220703 0.8126221
vt 0.0625 0.8126221
vt 0.0625 0.875
vt 0.0001220703 0.875
vt 0.1876221 0.8126221
vt 0.25 0.8126221
vt 0.25 0.875
vt 0.1876221 0.875
vt 0.1251221 0.8126221
vt 0.1875 0.8126221
vt 0.1875 0.875
vt 0.1251221 0.875

# Normal
vn 0 0 -1

# Groups (Count = 2)
g mesh_[00]_[00]
f  1/1/1  2/2/1  3/3/1  4/4/1 
f  2/5/1  5/6/1  6/7/1  3/8/1 
f  7/9/1  8/10/1  9/11/1  10/12/1 
f  11/13/1  12/14/1  2/15/1  1/16/1 
f  12/17/1  13/18/1  5/19/1  2/20/1 
f  13/9/1  14/10/1  7/11/1  5/12/1 
f  14/21/1  15/22/1  8/23/1  7/24/1 
f  16/25/1  17/26/1  12/27/1  11/28/1 
f  17/29/1  18/30/1  13/31/1  12/32/1 
f  19/33/1  20/34/1  15/35/1  14/36/1 
f  21/37/1  22/38/1  18/39/1  17/40/1 
f  22/41/1  23/42/1  19/43/1  18/44/1 
f  23/45/1  24/46/1  20/47/1  19/48/1 
f  25/49/1  26/50/1  23/51/1  22/52/1 
g mesh_[01]_[00]
f  27/53/1  28/54/1  29/55/1  30/56/1 
f  31/57/1  32/58/1  33/59/1  34/60/1 
f  35/53/1  36/54/1  28/55/1  27/56/1 
f  37/57/1  38/58/1  32/59/1  31/60/1 
f  39/53/1  40/54/1  36/55/1  35/56/1 
f  41/57/1  42/58/1  38/59/1  37/60/1 
f  43/53/1  44/54/1  40/55/1  39/56/1 
f  45/57/1  46/58/1  42/59/1  41/60/1 
f  47/53/1  48/54/1  44/55/1  43/56/1 
f  49/57/1  50/58/1  46/59/1  45/60/1 
f  51/61/1  52/62/1  53/63/1  54/64/1 
f  52/65/1  55/66/1  56/67/1  53/68/1 
f  55/65/1  57/66/1  58/67/1  56/68/1 
f  57/65/1  59/66/1  60/67/1  58/68/1 
f  59/65/1  61/66/1  62/67/1  60/68/1 
f  61/65/1  63/66/1  64/67/1  62/68/1 
f  63/65/1  65/66/1  66/67/1  64/68/1 
f  65/69/1  67/70/1  68/71/1  66/72/1 
f  69/53/1  70/54/1  48/55/1  47/56/1 
f  71/73/1  72/74/1  50/75/1  49/76/1 
f  72/77/1  73/78/1  74/79/1  50/80/1 
f  73/77/1  75/78/1  76/79/1  74/80/1 
f  75/77/1  77/78/1  78/79/1  76/80/1 
f  77/77/1  79/78/1  80/79/1  78/80/1 
f  79/77/1  81/78/1  82/79/1  80/80/1 
f  81/77/1  83/78/1  84/79/1  82/80/1 
f  83/77/1  85/78/1  86/79/1  84/80/1 
f  85/77/1  87/78/1  51/79/1  86/80/1 
f  87/81/1  88/82/1  52/83/1  51/84/1 
f  89/57/1  90/58/1  67/59/1  65/60/1 
f  91/53/1  92/54/1  70/55/1  69/56/1 
f  93/57/1  94/58/1  90/59/1  89/60/1 
f  95/53/1  96/54/1  92/55/1  91/56/1 
f  96/85/1  97/86/1  98/87/1  92/88/1 
f  97/85/1  99/86/1  100/87/1  98/88/1 
f  99/85/1  101/86/1  102/87/1  100/88/1 
f  103/57/1  104/58/1  94/59/1  93/60/1 
f  105/53/1  106/54/1  96/55/1  95/56/1 
f  107/57/1  108/58/1  104/59/1  103/60/1 
f  109/53/1  110/54/1  106/55/1  105/56/1 
f  111/57/1  112/58/1  108/59/1  107/60/1 
f  113/53/1  114/54/1  110/55/1  109/56/1 
f  115/89/1  116/90/1  117/91/1  118/92/1 
f  116/85/1  119/86/1  120/87/1  117/88/1 
f  119/85/1  121/86/1  122/87/1  120/88/1 
f  121/85/1  123/86/1  124/87/1  122/88/1 
f  123/93/1  125/94/1  126/95/1  124/96/1 
f  127/57/1  128/58/1  112/59/1  111/60/1 
f  129/53/1  130/54/1  114/55/1  113/56/1 
f  131/57/1  132/58/1  116/59/1  115/60/1 
f  133/97/1  134/98/1  125/99/1  123/100/1 
f  134/101/1  135/102/1  136/103/1  125/104/1 
f  135/101/1  137/102/1  138/103/1  136/104/1 
f  137/101/1  139/102/1  25/103/1  138/104/1 
f  139/101/1  140/102/1  26/103/1  25/104/1 
f  140/101/1  141/102/1  142/103/1  26/104/1 
f  141/101/1  143/102/1  127/103/1  142/104/1 
f  143/105/1  144/106/1  128/107/1  127/108/1 
f  145/53/1  146/54/1  130/55/1  129/56/1 
f  147/89/1  148/90/1  149/91/1  150/92/1 
f  148/85/1  151/86/1  152/87/1  149/88/1 
f  151/85/1  153/86/1  154/87/1  152/88/1 
f  153/85/1  155/86/1  156/87/1  154/88/1 
f  155/85/1  157/86/1  131/87/1  156/88/1 
f  157/105/1  158/106/1  132/107/1  131/108/1 
f  159/53/1  160/54/1  146/55/1  145/56/1 
f  161/57/1  162/58/1  148/59/1  147/60/1 
f  163/53/1  164/54/1  160/55/1  159/56/1 
f  165/57/1  166/58/1  162/59/1  161/60/1 
f  167/53/1  168/54/1  164/55/1  163/56/1 
f  168/85/1  169/86/1  170/87/1  164/88/1 
f  169/85/1  171/86/1  172/87/1  170/88/1 
f  171/85/1  173/86/1  174/87/1  172/88/1 
f  175/57/1  176/58/1  166/59/1  165/60/1 
f  177/53/1  178/54/1  168/55/1  167/56/1 
f  179/57/1  180/58/1  176/59/1  175/60/1 
f  181/53/1  182/54/1  178/55/1  177/56/1 
f  183/57/1  184/58/1  180/59/1  179/60/1 
